<svg id="visual" viewBox="0 0 960 300" width="960" height="300" xmlns="http://www.w3.org/2000/svg" xmlns:xlink="http://www.w3.org/1999/xlink" version="1.1"><rect x="0" y="0" width="960" height="300" fill="#101f2a"></rect><path d="M0 123L20 119.5C40 116 80 109 120 106.8C160 104.7 200 107.3 240 109C280 110.7 320 111.3 360 113.2C400 115 440 118 480 113.3C520 108.7 560 96.3 600 89.8C640 83.3 680 82.7 720 85.2C760 87.7 800 93.3 840 97.7C880 102 920 105 940 106.5L960 108L960 0L940 0C920 0 880 0 840 0C800 0 760 0 720 0C680 0 640 0 600 0C560 0 520 0 480 0C440 0 400 0 360 0C320 0 280 0 240 0C200 0 160 0 120 0C80 0 40 0 20 0L0 0Z" fill="#48b2cf"></path><path d="M0 67L20 65.7C40 64.3 80 61.7 120 61C160 60.3 200 61.7 240 68C280 74.3 320 85.7 360 84.5C400 83.3 440 69.7 480 62.8C520 56 560 56 600 56.7C640 57.3 680 58.7 720 61C760 63.3 800 66.7 840 74.2C880 81.7 920 93.3 940 99.2L960 105L960 0L940 0C920 0 880 0 840 0C800 0 760 0 720 0C680 0 640 0 600 0C560 0 520 0 480 0C440 0 400 0 360 0C320 0 280 0 240 0C200 0 160 0 120 0C80 0 40 0 20 0L0 0Z" fill="#0099dc"></path><path d="M0 72L20 68C40 64 80 56 120 50.5C160 45 200 42 240 47C280 52 320 65 360 66.2C400 67.3 440 56.7 480 56.7C520 56.7 560 67.3 600 69.2C640 71 680 64 720 64.7C760 65.3 800 73.7 840 72.2C880 70.7 920 59.3 940 53.7L960 48L960 0L940 0C920 0 880 0 840 0C800 0 760 0 720 0C680 0 640 0 600 0C560 0 520 0 480 0C440 0 400 0 360 0C320 0 280 0 240 0C200 0 160 0 120 0C80 0 40 0 20 0L0 0Z" fill="#0079de"></path><path d="M0 40L20 43C40 46 80 52 120 53.2C160 54.3 200 50.7 240 46C280 41.3 320 35.7 360 33.8C400 32 440 34 480 35.3C520 36.7 560 37.3 600 41.5C640 45.7 680 53.3 720 57C760 60.7 800 60.3 840 57.7C880 55 920 50 940 47.5L960 45L960 0L940 0C920 0 880 0 840 0C800 0 760 0 720 0C680 0 640 0 600 0C560 0 520 0 480 0C440 0 400 0 360 0C320 0 280 0 240 0C200 0 160 0 120 0C80 0 40 0 20 0L0 0Z" fill="#0052d4"></path><path d="M0 29L20 27.2C40 25.3 80 21.7 120 23.2C160 24.7 200 31.3 240 30C280 28.7 320 19.3 360 17.2C400 15 440 20 480 23.3C520 26.7 560 28.3 600 27.7C640 27 680 24 720 21.5C760 19 800 17 840 15.5C880 14 920 13 940 12.5L960 12L960 0L940 0C920 0 880 0 840 0C800 0 760 0 720 0C680 0 640 0 600 0C560 0 520 0 480 0C440 0 400 0 360 0C320 0 280 0 240 0C200 0 160 0 120 0C80 0 40 0 20 0L0 0Z" fill="#1c1cbf"></path></svg>