<svg id="visual" viewBox="0 0 600 300" width="600" height="300" xmlns="http://www.w3.org/2000/svg" xmlns:xlink="http://www.w3.org/1999/xlink" version="1.1"><path d="M0 221L7.2 225.3C14.3 229.7 28.7 238.3 43 230.7C57.3 223 71.7 199 86 195C100.3 191 114.7 207 128.8 209.5C143 212 157 201 171.2 200.5C185.3 200 199.7 210 214 210.5C228.3 211 242.7 202 257 206.8C271.3 211.7 285.7 230.3 300 226.7C314.3 223 328.7 197 343 193.3C357.3 189.7 371.7 208.3 386 219.2C400.3 230 414.7 233 428.8 235.8C443 238.7 457 241.3 471.2 239.8C485.3 238.3 499.7 232.7 514 227.5C528.3 222.3 542.7 217.7 557 216.5C571.3 215.3 585.7 217.7 592.8 218.8L600 220L600 301L592.8 301C585.7 301 571.3 301 557 301C542.7 301 528.3 301 514 301C499.7 301 485.3 301 471.2 301C457 301 443 301 428.8 301C414.7 301 400.3 301 386 301C371.7 301 357.3 301 343 301C328.7 301 314.3 301 300 301C285.7 301 271.3 301 257 301C242.7 301 228.3 301 214 301C199.7 301 185.3 301 171.2 301C157 301 143 301 128.8 301C114.7 301 100.3 301 86 301C71.7 301 57.3 301 43 301C28.7 301 14.3 301 7.2 301L0 301Z" fill="#2273ee" stroke-linecap="round" stroke-linejoin="miter"></path></svg>